<svg width="82" height="82" viewBox="0 0 82 82" fill="none" xmlns="http://www.w3.org/2000/svg">
<path d="M19.8363 11.4727H16.9221C17.3605 8.22742 19.1548 8.06437 19.9806 7.98926C20.8056 7.91414 21.4371 7.22258 21.4371 6.39423V1.60146C21.4371 1.16119 21.2558 0.740128 20.9358 0.437587C20.6158 0.135046 20.185 -0.0217497 19.7457 0.00243437C14.6831 0.287198 8.64844 2.84334 8.64844 13.4039V21.7386C8.64844 23.1299 9.78026 24.2618 11.1715 24.2618H19.8365C21.2278 24.2618 22.3596 23.1298 22.3594 21.7385V13.9959C22.3594 12.6046 21.2276 11.4727 19.8363 11.4727ZM19.1564 21.0584H11.8516V13.4039C11.8516 6.035 15.1285 3.97695 18.2339 3.39605V5.07997C16.0893 5.73277 13.621 7.66077 13.621 13.0743C13.621 13.9589 14.338 14.6759 15.2225 14.6759H19.1564V21.0584Z" fill="#E5E8EB"/>
<path d="M36.2099 11.4727H33.2955C33.7339 8.22742 35.5283 8.06437 36.354 7.98926C37.179 7.91414 37.8105 7.22258 37.8105 6.39423V1.60146C37.8105 1.16119 37.6292 0.740128 37.3092 0.437587C36.9892 0.135046 36.5581 -0.0217497 36.1191 0.00243437C31.0565 0.287198 25.0219 2.84334 25.0219 13.4039V21.7386C25.0219 23.1299 26.1537 24.2618 27.545 24.2618H36.2099C37.6012 24.2618 38.7332 23.1298 38.733 21.7383V13.9959C38.733 12.6046 37.6012 11.4727 36.2099 11.4727ZM35.5299 21.0586H28.225V13.4039C28.225 6.035 31.5019 3.97695 34.6074 3.39605V5.07997C32.4627 5.73277 29.9944 7.66077 29.9944 13.0743C29.9944 13.9589 30.7114 14.6759 31.5959 14.6759H35.5299V21.0586Z" fill="#E5E8EB"/>
<path d="M45.6557 12.9393C45.3579 12.6414 44.9446 12.47 44.5234 12.47C44.1022 12.47 43.689 12.6414 43.3911 12.9393C43.0932 13.2372 42.9219 13.6504 42.9219 14.0716C42.9219 14.4928 43.0932 14.9061 43.3911 15.204C43.689 15.5019 44.1022 15.6732 44.5234 15.6732C44.9446 15.6732 45.3579 15.5019 45.6557 15.204C45.9536 14.9061 46.125 14.4928 46.125 14.0716C46.125 13.6504 45.9536 13.2372 45.6557 12.9393Z" fill="#E5E8EB"/>
<path d="M53.535 12.4699H51.5168C50.6323 12.4699 49.9153 13.1869 49.9153 14.0715C49.9153 14.956 50.6323 15.6731 51.5168 15.6731H53.535C67.4644 15.6731 78.7969 27.0058 78.7969 40.9355C78.7969 52.8244 70.365 63.222 58.7474 65.6585C58.0057 65.8141 57.4746 66.4682 57.4746 67.2259V76.5318L47.61 66.667C47.3097 66.3667 46.9022 66.1979 46.4775 66.1979H28.4651C14.5356 66.1979 3.20312 54.8652 3.20312 40.9355C3.20312 36.6424 4.29907 32.4031 6.37262 28.6756C6.8028 27.9027 6.52461 26.9275 5.75169 26.4974C4.97862 26.0672 4.00343 26.3454 3.57357 27.1184C1.23561 31.3208 0 36.0987 0 40.9355C0 56.6316 12.7693 69.4011 28.4651 69.4011H45.8141L57.9437 81.5309C58.2501 81.8373 58.6596 82 59.0765 82C59.2828 82 59.491 81.9601 59.6891 81.878C60.2875 81.6302 60.6778 81.0462 60.6778 80.3984V68.4952C66.4727 66.9936 71.7125 63.6521 75.5414 58.9909C79.7062 53.9207 82 47.5086 82 40.9355C82 25.2395 69.2307 12.47 53.535 12.4699Z" fill="#E5E8EB"/>
<path d="M60.7095 28.4262H21.2907C20.4061 28.4262 19.6891 29.1433 19.6891 30.0278C19.6891 30.9124 20.4061 31.6294 21.2907 31.6294H60.7093C61.5938 31.6294 62.311 30.9124 62.311 30.0278C62.311 29.1433 61.594 28.4262 60.7095 28.4262Z" fill="#E5E8EB"/>
<path d="M60.7095 36.968H21.2907C20.4061 36.968 19.6891 37.685 19.6891 38.5696C19.6891 39.4542 20.4061 40.1712 21.2907 40.1712H60.7093C61.5938 40.1712 62.311 39.4542 62.311 38.5696C62.311 37.685 61.594 36.968 60.7095 36.968Z" fill="#E5E8EB"/>
<path d="M60.7095 45.5098H21.2907C20.4061 45.5098 19.6891 46.227 19.6891 47.1114C19.6891 47.9958 20.4061 48.713 21.2907 48.713H60.7093C61.5938 48.713 62.311 47.9958 62.311 47.1114C62.311 46.227 61.594 45.5098 60.7095 45.5098Z" fill="#E5E8EB"/>
<path d="M60.7093 54.0517H39.6981C38.8135 54.0517 38.0965 54.7689 38.0965 55.6533C38.0965 56.5377 38.8135 57.2549 39.6981 57.2549H60.7093C61.5938 57.2549 62.3109 56.5377 62.3109 55.6533C62.3109 54.7689 61.5938 54.0517 60.7093 54.0517Z" fill="#E5E8EB"/>
<path d="M30.6871 54.0516H30.6613C29.7767 54.0516 29.0597 54.7688 29.0597 55.6532C29.0597 56.5376 29.7767 57.2547 30.6613 57.2547H30.6871C31.5716 57.2547 32.2886 56.5376 32.2886 55.6532C32.2886 54.7688 31.5716 54.0516 30.6871 54.0516Z" fill="#E5E8EB"/>
</svg>
